# xmcd
#
# Track frame offsets: 
#        150
#        19441
#        31732
#        58826
#        98030
#        117497
#        137130
#        158371
#        179724
#        203702
#
# Disc length: 3316 seconds
#
# Revision: 1
# Processed by: cddbd v1.5.2PL0 Copyright (c) Steve Scherf et al.
# Submitted via: ExactAudioCopy v1.0b3
#
DISCID=870cf20a
DTITLE=Lonely Kamel - Blues For The Dead
DYEAR=2010
DGENRE=Blues
TTITLE0=A Tale Of A Madman
TTITLE1=Green Eyed Woman
TTITLE2=Wasted Time
TTITLE3=Stick With Your Plan
TTITLE4=Lady Mushroom
TTITLE5=A Million Years From Home
TTITLE6=No More Excuses
TTITLE7=Blindfolded
TTITLE8=The Boys
TTITLE9=The Trip
EXTD=
EXTT0=
EXTT1=
EXTT2=
EXTT3=
EXTT4=
EXTT5=
EXTT6=
EXTT7=
EXTT8=
EXTT9=
PLAYORDER=
